<mxfile host="app.diagrams.net" modified="2021-08-02T13:03:11.089Z" agent="5.0 (X11; Linux x86_64) AppleWebKit/537.36 (KHTML, like Gecko) Chrome/91.0.4472.124 Safari/537.36" etag="z0AlNChZcvil0bavfibq" version="14.9.3" type="github">
  <diagram id="TXdwmDKukG7pd7k8bavR" name="Page-1">
    <mxGraphModel dx="591" dy="342" grid="1" gridSize="10" guides="1" tooltips="1" connect="1" arrows="1" fold="1" page="1" pageScale="1" pageWidth="827" pageHeight="1169" math="0" shadow="0">
      <root>
        <mxCell id="0" />
        <mxCell id="1" parent="0" />
        <mxCell id="wn7AJhLU_0jLHgmKzjVR-1" value="" style="endArrow=none;html=1;startArrow=none;" edge="1" parent="1" source="wn7AJhLU_0jLHgmKzjVR-13">
          <mxGeometry width="50" height="50" relative="1" as="geometry">
            <mxPoint x="170" y="280" as="sourcePoint" />
            <mxPoint x="580" y="280" as="targetPoint" />
          </mxGeometry>
        </mxCell>
        <mxCell id="wn7AJhLU_0jLHgmKzjVR-2" value="" style="endArrow=none;html=1;" edge="1" parent="1">
          <mxGeometry width="50" height="50" relative="1" as="geometry">
            <mxPoint x="330" y="209.71" as="sourcePoint" />
            <mxPoint x="580" y="210" as="targetPoint" />
          </mxGeometry>
        </mxCell>
        <mxCell id="wn7AJhLU_0jLHgmKzjVR-4" value="" style="ellipse;whiteSpace=wrap;html=1;aspect=fixed;" vertex="1" parent="1">
          <mxGeometry x="130" y="260" width="40" height="40" as="geometry" />
        </mxCell>
        <mxCell id="wn7AJhLU_0jLHgmKzjVR-10" style="edgeStyle=orthogonalEdgeStyle;rounded=0;orthogonalLoop=1;jettySize=auto;html=1;exitX=0.5;exitY=0;exitDx=0;exitDy=0;entryX=0;entryY=0.5;entryDx=0;entryDy=0;" edge="1" parent="1" source="wn7AJhLU_0jLHgmKzjVR-5" target="wn7AJhLU_0jLHgmKzjVR-8">
          <mxGeometry relative="1" as="geometry">
            <mxPoint x="330" y="240" as="targetPoint" />
            <Array as="points">
              <mxPoint x="270" y="210" />
            </Array>
          </mxGeometry>
        </mxCell>
        <mxCell id="wn7AJhLU_0jLHgmKzjVR-6" value="&lt;font style=&quot;font-size: 9px&quot;&gt;merged&lt;/font&gt;" style="ellipse;whiteSpace=wrap;html=1;aspect=fixed;" vertex="1" parent="1">
          <mxGeometry x="414" y="190" width="40" height="40" as="geometry" />
        </mxCell>
        <mxCell id="wn7AJhLU_0jLHgmKzjVR-8" value="#5" style="ellipse;whiteSpace=wrap;html=1;aspect=fixed;" vertex="1" parent="1">
          <mxGeometry x="330" y="190" width="40" height="40" as="geometry" />
        </mxCell>
        <mxCell id="wn7AJhLU_0jLHgmKzjVR-12" value="#5" style="ellipse;whiteSpace=wrap;html=1;aspect=fixed;" vertex="1" parent="1">
          <mxGeometry x="500" y="190" width="40" height="40" as="geometry" />
        </mxCell>
        <mxCell id="wn7AJhLU_0jLHgmKzjVR-16" style="edgeStyle=orthogonalEdgeStyle;rounded=0;orthogonalLoop=1;jettySize=auto;html=1;exitX=0.5;exitY=0;exitDx=0;exitDy=0;entryX=0.5;entryY=1;entryDx=0;entryDy=0;" edge="1" parent="1" source="wn7AJhLU_0jLHgmKzjVR-13" target="wn7AJhLU_0jLHgmKzjVR-6">
          <mxGeometry relative="1" as="geometry" />
        </mxCell>
        <mxCell id="wn7AJhLU_0jLHgmKzjVR-13" value="#2" style="ellipse;whiteSpace=wrap;html=1;aspect=fixed;" vertex="1" parent="1">
          <mxGeometry x="414" y="260" width="40" height="40" as="geometry" />
        </mxCell>
        <mxCell id="wn7AJhLU_0jLHgmKzjVR-14" value="" style="endArrow=none;html=1;" edge="1" parent="1" target="wn7AJhLU_0jLHgmKzjVR-13">
          <mxGeometry width="50" height="50" relative="1" as="geometry">
            <mxPoint x="170" y="280" as="sourcePoint" />
            <mxPoint x="580" y="280" as="targetPoint" />
          </mxGeometry>
        </mxCell>
        <mxCell id="wn7AJhLU_0jLHgmKzjVR-5" value="#0" style="ellipse;whiteSpace=wrap;html=1;aspect=fixed;" vertex="1" parent="1">
          <mxGeometry x="250" y="260" width="40" height="40" as="geometry" />
        </mxCell>
        <mxCell id="wn7AJhLU_0jLHgmKzjVR-7" value="#1" style="ellipse;whiteSpace=wrap;html=1;aspect=fixed;" vertex="1" parent="1">
          <mxGeometry x="330" y="260" width="40" height="40" as="geometry" />
        </mxCell>
        <mxCell id="wn7AJhLU_0jLHgmKzjVR-17" value="Master" style="text;html=1;strokeColor=none;fillColor=none;align=center;verticalAlign=middle;whiteSpace=wrap;rounded=0;" vertex="1" parent="1">
          <mxGeometry x="180" y="260" width="40" height="20" as="geometry" />
        </mxCell>
        <mxCell id="wn7AJhLU_0jLHgmKzjVR-18" value="&lt;font style=&quot;font-size: 8px&quot;&gt;Unable to Push to gitserver&lt;/font&gt;" style="text;html=1;strokeColor=none;fillColor=none;align=center;verticalAlign=middle;whiteSpace=wrap;rounded=0;" vertex="1" parent="1">
          <mxGeometry x="580" y="200" width="40" height="20" as="geometry" />
        </mxCell>
        <mxCell id="wn7AJhLU_0jLHgmKzjVR-19" value="" style="endArrow=none;html=1;startArrow=none;" edge="1" source="wn7AJhLU_0jLHgmKzjVR-26" parent="1">
          <mxGeometry width="50" height="50" relative="1" as="geometry">
            <mxPoint x="160" y="430" as="sourcePoint" />
            <mxPoint x="570" y="430" as="targetPoint" />
          </mxGeometry>
        </mxCell>
        <mxCell id="wn7AJhLU_0jLHgmKzjVR-20" value="" style="endArrow=none;html=1;" edge="1" parent="1">
          <mxGeometry width="50" height="50" relative="1" as="geometry">
            <mxPoint x="320" y="359.71000000000004" as="sourcePoint" />
            <mxPoint x="570" y="360" as="targetPoint" />
          </mxGeometry>
        </mxCell>
        <mxCell id="wn7AJhLU_0jLHgmKzjVR-21" style="edgeStyle=orthogonalEdgeStyle;rounded=0;orthogonalLoop=1;jettySize=auto;html=1;exitX=0.5;exitY=0;exitDx=0;exitDy=0;entryX=0;entryY=0.5;entryDx=0;entryDy=0;" edge="1" source="wn7AJhLU_0jLHgmKzjVR-28" target="wn7AJhLU_0jLHgmKzjVR-23" parent="1">
          <mxGeometry relative="1" as="geometry">
            <mxPoint x="320" y="390" as="targetPoint" />
            <Array as="points">
              <mxPoint x="260" y="360" />
            </Array>
          </mxGeometry>
        </mxCell>
        <mxCell id="wn7AJhLU_0jLHgmKzjVR-22" value="&lt;font style=&quot;font-size: 9px&quot;&gt;merged&lt;/font&gt;" style="ellipse;whiteSpace=wrap;html=1;aspect=fixed;" vertex="1" parent="1">
          <mxGeometry x="404" y="340" width="40" height="40" as="geometry" />
        </mxCell>
        <mxCell id="wn7AJhLU_0jLHgmKzjVR-23" value="#5" style="ellipse;whiteSpace=wrap;html=1;aspect=fixed;" vertex="1" parent="1">
          <mxGeometry x="320" y="340" width="40" height="40" as="geometry" />
        </mxCell>
        <mxCell id="wn7AJhLU_0jLHgmKzjVR-25" style="edgeStyle=orthogonalEdgeStyle;rounded=0;orthogonalLoop=1;jettySize=auto;html=1;exitX=0.5;exitY=0;exitDx=0;exitDy=0;entryX=0.5;entryY=1;entryDx=0;entryDy=0;" edge="1" source="wn7AJhLU_0jLHgmKzjVR-26" target="wn7AJhLU_0jLHgmKzjVR-22" parent="1">
          <mxGeometry relative="1" as="geometry" />
        </mxCell>
        <mxCell id="wn7AJhLU_0jLHgmKzjVR-26" value="#2" style="ellipse;whiteSpace=wrap;html=1;aspect=fixed;" vertex="1" parent="1">
          <mxGeometry x="404" y="410" width="40" height="40" as="geometry" />
        </mxCell>
        <mxCell id="wn7AJhLU_0jLHgmKzjVR-27" value="" style="endArrow=none;html=1;" edge="1" target="wn7AJhLU_0jLHgmKzjVR-26" parent="1">
          <mxGeometry width="50" height="50" relative="1" as="geometry">
            <mxPoint x="160" y="430" as="sourcePoint" />
            <mxPoint x="570" y="430" as="targetPoint" />
          </mxGeometry>
        </mxCell>
        <mxCell id="wn7AJhLU_0jLHgmKzjVR-28" value="#0" style="ellipse;whiteSpace=wrap;html=1;aspect=fixed;" vertex="1" parent="1">
          <mxGeometry x="240" y="410" width="40" height="40" as="geometry" />
        </mxCell>
        <mxCell id="wn7AJhLU_0jLHgmKzjVR-29" value="#1" style="ellipse;whiteSpace=wrap;html=1;aspect=fixed;" vertex="1" parent="1">
          <mxGeometry x="320" y="410" width="40" height="40" as="geometry" />
        </mxCell>
        <mxCell id="wn7AJhLU_0jLHgmKzjVR-30" value="Master" style="text;html=1;strokeColor=none;fillColor=none;align=center;verticalAlign=middle;whiteSpace=wrap;rounded=0;" vertex="1" parent="1">
          <mxGeometry x="170" y="410" width="40" height="20" as="geometry" />
        </mxCell>
        <mxCell id="wn7AJhLU_0jLHgmKzjVR-31" value="&lt;font style=&quot;font-size: 8px&quot;&gt;But in this case, it is able to push to gitserver&lt;/font&gt;" style="text;html=1;strokeColor=none;fillColor=none;align=center;verticalAlign=middle;whiteSpace=wrap;rounded=0;" vertex="1" parent="1">
          <mxGeometry x="570" y="350" width="40" height="20" as="geometry" />
        </mxCell>
        <mxCell id="wn7AJhLU_0jLHgmKzjVR-32" value="" style="ellipse;whiteSpace=wrap;html=1;aspect=fixed;" vertex="1" parent="1">
          <mxGeometry x="130" y="410" width="40" height="40" as="geometry" />
        </mxCell>
      </root>
    </mxGraphModel>
  </diagram>
</mxfile>
